/* XPM */
static char * c3_xpm[] = {
"32 32 5 1",
" 	c #443F50",
".	c #000000",
"+	c #00FF0F",
"@	c #1C1F01",
"#	c #0E0F00",
"                                ",
"                                ",
"                                ",
"                                ",
"                    ..          ",
"                   ....         ",
"                   ..+..        ",
"                  ..+++..       ",
"                 ..+++++...     ",
"                ..++...++..     ",
"               ..++.. ....      ",
"               ..++... ..       ",
"              ..++++...         ",
"             ..++..++..         ",
"         .....++......          ",
"       ......@+..  ...          ",
"      ..#++++++..               ",
"      .@++...++..               ",
"     ..++.....+..               ",
"     ..+..   .++.               ",
"     ..+..   .++.               ",
"     ..+..  ..++.               ",
"     ..++.....+..               ",
"      ..+++++++..               ",
"       ..++++...                ",
"        .......                 ",
"          ..                    ",
"                                ",
"                                ",
"                                ",
"                                ",
"                                "};
