/* XPM */
static char * hright_xpm[] = {
"32 32 5 1",
" 	c #443F50",
".	c #3D253B",
"+	c #CCA8A3",
"@	c #EBD0C5",
"#	c #A17877",
"                                ",
"                                ",
"          ..............        ",
"          ..............        ",
"        ..++++++@@@@@@++..      ",
"        ..++++++@@@@@@++..      ",
"      ..++++++@@@@@@@@@@..      ",
"      ..++++++@@@@@@@@@@..      ",
"      ..++++++@@@@@@@@@@..      ",
"      ..++++++@@@@@@@@@@..      ",
"      ..++++++....@@@@....      ",
"      ..++++++....@@@@....      ",
"      ..++++++....@@@@....      ",
"      ..++++++....@@@@....      ",
"        ..++++++@@@@@@@@..      ",
"        ..++++++@@@@@@@@..      ",
"          ....##@@##@@++..      ",
"          ....##@@##@@++..      ",
"          ..@@@@########..      ",
"          ..@@@@########..      ",
"        ..@@++++@@@@@@++##..    ",
"        ..@@++++@@@@@@++##..    ",
"      ..++++..@@++++++@@##..    ",
"      ..++++..@@++++++@@##..    ",
"        ......++@@@@@@....      ",
"        ......++@@@@@@....      ",
"            ..@@....##..        ",
"            ..@@....##..        ",
"          ..@@@@....####..      ",
"          ..@@@@....####..      ",
"                                ",
"                                "};
