/* XPM */
static char * mvleft_xpm[] = {
"32 32 12 1",
" 	c #443F50",
".	c #1A0521",
"+	c #3678F2",
"@	c #4701A8",
"#	c #E5928B",
"$	c #005739",
"%	c #F8ECF7",
"&	c #FFC8A8",
"*	c #E9F236",
"=	c #BA7E0E",
"-	c #820036",
";	c #BF0E30",
"        ......                  ",
"        ......                  ",
"    ....++++@@......            ",
"    ....++++@@......            ",
"  ..@@@@++++++++@@@@..          ",
"  ..@@@@++++++++@@@@..          ",
"    ..++++++++@@++@@@@..        ",
"    ..++++++++@@++@@@@..        ",
"  ..@@++@@++@@@@@@++@@..        ",
"  ..@@++@@++@@@@@@++@@..        ",
"  ..++@@......@@@@++@@@@..      ",
"  ..++@@......@@@@++@@@@..      ",
"    ..@@##$$%%..@@++@@@@..      ",
"    ..@@##$$%%..@@++@@@@..      ",
"      ..&&$$&&##@@@@**==..      ",
"      ..&&$$&&##@@@@**==..      ",
"      ..##&&##..@@**==..        ",
"      ..##&&##..@@**==..        ",
"        ......@@====....        ",
"        ......@@====....        ",
"        ..**==....--..--..      ",
"        ..**==....--..--..      ",
"        ..++..;;--##..;;..      ",
"        ..++..;;--##..;;..      ",
"        ..@@..####..;;;;--..    ",
"        ..@@..####..;;;;--..    ",
"        ..**==....--;;----..    ",
"        ..**==....--;;----..    ",
"        ..++@@@@..----------..  ",
"        ..++@@@@..----------..  ",
"        ..@@@@..............    ",
"        ..@@@@..............    "};
