/* XPM */
static char * mvright_xpm[] = {
"32 32 12 1",
" 	c #443F50",
".	c #1A0521",
"+	c #4701A8",
"@	c #3678F2",
"#	c #F8ECF7",
"$	c #005739",
"%	c #E5928B",
"&	c #BA7E0E",
"*	c #E9F236",
"=	c #FFC8A8",
"-	c #820036",
";	c #BF0E30",
"                  ......        ",
"                  ......        ",
"            ......++@@@@....    ",
"            ......++@@@@....    ",
"          ..++++@@@@@@@@++++..  ",
"          ..++++@@@@@@@@++++..  ",
"        ..++++@@++@@@@@@@@..    ",
"        ..++++@@++@@@@@@@@..    ",
"        ..++@@++++++@@++@@++..  ",
"        ..++@@++++++@@++@@++..  ",
"      ..++++@@++++......++@@..  ",
"      ..++++@@++++......++@@..  ",
"      ..++++@@++..##$$%%++..    ",
"      ..++++@@++..##$$%%++..    ",
"      ..&&**++++%%==$$==..      ",
"      ..&&**++++%%==$$==..      ",
"        ..&&**++..%%==%%..      ",
"        ..&&**++..%%==%%..      ",
"        ....&&&&++......        ",
"        ....&&&&++......        ",
"      ..--..%%....&&**..        ",
"      ..--..%%....&&**..        ",
"      ..;;..%%%%==..@@..        ",
"      ..;;..%%%%==..@@..        ",
"    ..--;;;;..%%%%..++..        ",
"    ..--;;;;..%%%%..++..        ",
"    ..----;;--....&&**..        ",
"    ..----;;--....&&**..        ",
"  ..----------..++++@@..        ",
"  ..----------..++++@@..        ",
"    ..............++++..        ",
"    ..............++++..        "};
