/* XPM */
static char * mvup_xpm[] = {
"32 32 8 1",
" 	c #443F50",
".	c #1A0521",
"+	c #4701A8",
"@	c #3678F2",
"#	c #E9F236",
"$	c #BA7E0E",
"%	c #820036",
"&	c #BF0E30",
"              ......            ",
"              ......            ",
"          ....++@@@@....        ",
"          ....++@@@@....        ",
"        ..++@@@@@@@@++++..      ",
"        ..++@@@@@@@@++++..      ",
"      ..++@@@@@@@@@@@@..        ",
"      ..++@@@@@@@@@@@@..        ",
"      ..@@@@@@@@@@@@@@++..      ",
"      ..@@@@@@@@@@@@@@++..      ",
"    ..++++@@@@@@@@@@@@@@..      ",
"    ..++++@@@@@@@@@@@@@@..      ",
"    ....++++@@@@@@@@@@++....    ",
"    ....++++@@@@@@@@@@++....    ",
"    ..##..++++++++++++..$$..    ",
"    ..##..++++++++++++..$$..    ",
"    ..$$##..++++++++..$$$$..    ",
"    ..$$##..++++++++..$$$$..    ",
"      ..$$##........$$$$..      ",
"      ..$$##........$$$$..      ",
"      ....$$..%%&&%%......      ",
"      ....$$..%%&&%%......      ",
"      ..%%..%%&&&&&&&&%%..      ",
"      ..%%..%%&&&&&&&&%%..      ",
"      ..%%%%&&&&&&&&&&%%%%..    ",
"      ..%%%%&&&&&&&&&&%%%%..    ",
"    ..%%%%&&&&&&&&&&&&%%%%..    ",
"    ..%%%%&&&&&&&&&&&&%%%%..    ",
"    ..%%%%%%&&&&&&&&%%%%%%..    ",
"    ..%%%%%%&&&&&&&&%%%%%%..    ",
"      ....................      ",
"      ....................      "};
