/* XPM */
static char * SingleW1_xpm[] = {
"32 32 8 1",
" 	c None",
".	c #3978A8",
"+	c #394778",
"@	c #302C2E",
"#	c #39314B",
"$	c #55372C",
"%	c #6C402B",
"&	c #B45F21",
"........  ..............  ......",
"........  ..............  ......",
"..++++++@@++++++++++++++@@++++..",
"..++++++@@++++++++++++++@@++++..",
"..++++++@@++++++++++++++@@++++..",
"..++++++@@++++++++++++++@@++++..",
"  @@@@@@@@@@@@@@@@@@@@@@@@++++..",
"  @@@@@@@@@@@@@@@@@@@@@@@@++++..",
"..++++@@########@@######@@@@@@  ",
"..++++@@########@@######@@@@@@  ",
"..++++@@########@@######@@++++..",
"..++++@@########@@######@@++++..",
"..++++@@########@@######@@++++..",
"..++++@@########@@######@@++++..",
"..++++@@@@@@@@$%%$######@@++++..",
"..++++@@@@@@@@%&&%######@@++++..",
"..++++@@######%&&%@@@@@@@@++++..",
"..++++@@######$%%$@@@@@@@@++++..",
"..++++@@######@@########@@++++..",
"..++++@@######@@########@@++++..",
"..++++@@######@@########@@++++..",
"..++++@@######@@########@@++++..",
"  @@@@@@######@@########@@++++..",
"  @@@@@@######@@########@@++++..",
"..++++@@@@@@@@@@@@@@@@@@@@@@@@  ",
"..++++@@@@@@@@@@@@@@@@@@@@@@@@  ",
"..++++@@++++++++++++++@@++++++..",
"..++++@@++++++++++++++@@++++++..",
"..++++@@++++++++++++++@@++++++..",
"..++++@@++++++++++++++@@++++++..",
"......  ..............  ........",
"......  ..............  ........"};
