/* XPM */
static char * SingleW3_xpm[] = {
"32 32 35 1",
" 	c None",
".	c #3978A8",
"+	c #394778",
"@	c #302C2E",
"#	c #39314B",
"$	c #905041",
"%	c #704346",
"&	c #8E4E27",
"*	c #6C402B",
"=	c #FF8300",
"-	c #D16D2D",
";	c #D16D1A",
">	c #99543F",
",	c #B46038",
"'	c #A4593D",
")	c #AE5D3A",
"!	c #B35F21",
"~	c #A25724",
"{	c #79452A",
"]	c #B96120",
"^	c #EF7C0C",
"/	c #9A5326",
"(	c #A25725",
"_	c #D36E19",
":	c #C6681D",
"<	c #CA6A1C",
"[	c #D46F2C",
"}	c #CA691C",
"|	c #AD5C23",
"1	c #7C4844",
"2	c #BB6336",
"3	c #A05625",
"4	c #B96220",
"5	c #995326",
"6	c #B25E22",
"........  ..............  ......",
"........  ..............  ......",
"..++++++@@++++++++++++++@@++++..",
"..++++++@@++++++++++++++@@++++..",
"..++++++@@++++++++++++++@@++++..",
"..++++++@@++++++++++++++@@++++..",
"  @@@@@@@@@@@@@@@@@@@@@@@@++++..",
"  @@@@@@@@@@@@@@@@@@@@@@@@++++..",
"..++++@@########@@######@@@@@@  ",
"..++++@@########@@######@@@@@@  ",
"..++++@@########@@######@@++++..",
"..++++@@###$$$%$&*$$$###@@++++..",
"..++++@@###$=$%-;*$=$###@@++++..",
"..++++@@###$>,')!~,$$###@@++++..",
"..++++@@@@@*{]^/(='%%###@@++++..",
"..++++@@@@@&_!(:<(,-$###@@++++..",
"..++++@@###$[,(}<(|;&@@@@@++++..",
"..++++@@###%12^34^5**@@@@@++++..",
"..++++@@###$>,~6,')$$###@@++++..",
"..++++@@###$=$*;-%$=$###@@++++..",
"..++++@@###$$$*&$%$$$###@@++++..",
"..++++@@######@@########@@++++..",
"  @@@@@@######@@########@@++++..",
"  @@@@@@######@@########@@++++..",
"..++++@@@@@@@@@@@@@@@@@@@@@@@@  ",
"..++++@@@@@@@@@@@@@@@@@@@@@@@@  ",
"..++++@@++++++++++++++@@++++++..",
"..++++@@++++++++++++++@@++++++..",
"..++++@@++++++++++++++@@++++++..",
"..++++@@++++++++++++++@@++++++..",
"......  ..............  ........",
"......  ..............  ........"};
