/* XPM */
static char * SingleW2_xpm[] = {
"32 32 23 1",
" 	c None",
".	c #3978A8",
"+	c #394778",
"@	c #302C2E",
"#	c #39314B",
"$	c #543949",
"%	c #905041",
"&	c #854B43",
"*	c #8E4E27",
"=	c #4E352D",
"-	c #AC5B23",
";	c #EF7C0C",
">	c #9A5326",
",	c #A25725",
"'	c #FF8300",
")	c #C6681D",
"!	c #CA6A1C",
"~	c #CA691C",
"{	c #824929",
"]	c #AE5D3A",
"^	c #A05625",
"/	c #B96220",
"(	c #8C4D28",
"........  ..............  ......",
"........  ..............  ......",
"..++++++@@++++++++++++++@@++++..",
"..++++++@@++++++++++++++@@++++..",
"..++++++@@++++++++++++++@@++++..",
"..++++++@@++++++++++++++@@++++..",
"  @@@@@@@@@@@@@@@@@@@@@@@@++++..",
"  @@@@@@@@@@@@@@@@@@@@@@@@++++..",
"..++++@@########@@######@@@@@@  ",
"..++++@@########@@######@@@@@@  ",
"..++++@@########@@######@@++++..",
"..++++@@########@@######@@++++..",
"..++++@@########@@######@@++++..",
"..++++@@####$%%&**%#####@@++++..",
"..++++@@@@@@=-;>,'%#####@@++++..",
"..++++@@@@@@=*,)!,%#####@@++++..",
"..++++@@####$%,~!,{@@@@@@@++++..",
"..++++@@####$];^/;{@@@@@@@++++..",
"..++++@@####$%*(%%&#####@@++++..",
"..++++@@######@@########@@++++..",
"..++++@@######@@########@@++++..",
"..++++@@######@@########@@++++..",
"  @@@@@@######@@########@@++++..",
"  @@@@@@######@@########@@++++..",
"..++++@@@@@@@@@@@@@@@@@@@@@@@@  ",
"..++++@@@@@@@@@@@@@@@@@@@@@@@@  ",
"..++++@@++++++++++++++@@++++++..",
"..++++@@++++++++++++++@@++++++..",
"..++++@@++++++++++++++@@++++++..",
"..++++@@++++++++++++++@@++++++..",
"......  ..............  ........",
"......  ..............  ........"};
