/* XPM */
static char * Single_Wall_B_xpm[] = {
"32 32 5 1",
" 	c None",
".	c #3978A8",
"+	c #394778",
"@	c #302C2E",
"#	c #39314B",
"..++++@@######@@@@@@@@@@@@++++..",
"..++++@@######@@@@@@@@@@@@++++..",
"..++++@@######@@@@######@@++++..",
"..++++@@######@@@@######@@++++..",
"..++++@@######@@@@######@@++++..",
"..++++@@######@@@@######@@++++..",
"  @@@@@@######@@@@######@@++++..",
"  @@@@@@######@@@@######@@++++..",
"..++++@@######@@@@######@@@@@@  ",
"..++++@@######@@@@######@@@@@@  ",
"..++++@@######@@@@######@@++++..",
"..++++@@######@@@@######@@++++..",
"..++++@@######@@@@######@@++++..",
"..++++@@######@@@@######@@++++..",
"..++++@@@@@@@@@@@@######@@++++..",
"..++++@@@@@@@@@@@@######@@++++..",
"..++++@@######@@@@@@@@@@@@++++..",
"..++++@@######@@@@@@@@@@@@++++..",
"..++++@@######@@########@@++++..",
"..++++@@######@@########@@++++..",
"..++++@@######@@########@@++++..",
"..++++@@######@@########@@++++..",
"  @@@@@@######@@########@@++++..",
"  @@@@@@######@@########@@++++..",
"..++++@@@@@@@@@@@@@@@@@@@@@@@@  ",
"..++++@@@@@@@@@@@@@@@@@@@@@@@@  ",
"..++++@@++++++++++++++@@++++++..",
"..++++@@++++++++++++++@@++++++..",
"..++++@@++++++++++++++@@++++++..",
"..++++@@++++++++++++++@@++++++..",
"......  ..............  ........",
"......  ..............  ........"};
