/* XPM */
static char * open_xpm[] = {
"32 32 17 1",
" 	c #443F50",
".	c #000000",
"+	c #CFAD31",
"@	c #643709",
"#	c #4E2703",
"$	c #180C00",
"%	c #060300",
"&	c #0A0802",
"*	c #A08927",
"=	c #141105",
"-	c #0F0C03",
";	c #78661D",
">	c #532F08",
",	c #6E5E1A",
"'	c #120A01",
")	c #190D02",
"!	c #592F06",
"                                ",
"                                ",
"                                ",
"                                ",
"                                ",
"                                ",
"  ............................  ",
"  ..++.@@@@@@@@@@@@@@@@@@.++..  ",
"  ..++.@################@.++..  ",
"  ..++.@@@@@@@@@@@@@@@@@@.++..  ",
"  ..++.@######...$######@.++..  ",
"  ..++.@@@@@%......@@@@@@.++..  ",
"  ..++.......&*==*........++..  ",
"  ..+++++++..*=..=*..+++++++..  ",
"  ..+++++++.**...-*;.+++++++..  ",
"  ............................  ",
"  ..>>....................>>..  ",
"  ..>>....................>>..  ",
"  ..>>.........==.........>>..  ",
"  ..>>....................>>..  ",
"  ..>>....................>>..  ",
"  ..>>>>>>>>>>>>>>>>>>>>>>>>..  ",
"  ............................  ",
"  ..+++++++.*******,.+++++++..  ",
"  ..+++++++..******..+++++++..  ",
"  ..++........****........++..  ",
"  ..++.@@@@@'......@@@@@@.++..  ",
"  ..++.@@@@@@@...)@@@@@@@.++..  ",
"  ..++.@@@@@@@@@@@@@@@@@@.++..  ",
"  ..++.@!!!!!!!!!!!!!!!!@.++..  ",
"  ............................  ",
"   ..........................   "};
