/* XPM */
static char * collectible_xpm[] = {
"50 50 2 1",
" 	c None",
".	c #FCDE00",
"                                                  ",
"                                                  ",
"                                                  ",
"                         .                        ",
"                         .                        ",
"                        ...                       ",
"                        ...                       ",
"                       .....                      ",
"                       .....                      ",
"                      .......                     ",
"                      .......                     ",
"                     .........                    ",
"                     .........                    ",
"                    ...........                   ",
"                    ...........                   ",
"                   .............                  ",
"                   .............                  ",
"               .....................              ",
"        ...................................       ",
"   .............................................  ",
"    ...........................................   ",
"     .........................................    ",
"      .......................................     ",
"       .....................................      ",
"        ...................................       ",
"         .................................        ",
"          ...............................         ",
"           .............................          ",
"            ...........................           ",
"             .........................            ",
"              .......................             ",
"              .......................             ",
"              .......................             ",
"              .......................             ",
"              .......................             ",
"             .........................            ",
"             .........................            ",
"             .........................            ",
"             .........................            ",
"             ..........     ..........            ",
"            ..........       ..........           ",
"            ........           ........           ",
"            ......               ......           ",
"            ....                   ....           ",
"            ..                       ..           ",
"                                                  ",
"                                                  ",
"                                                  ",
"                                                  ",
"                                                  "};
