/* XPM */
static char * collectible_xpm[] = {
"50 50 5 1",
" 	c #443F50",
".	c #000000",
"+	c #9AC400",
"@	c #1C1F01",
"#	c #0E0F00",
"                                                  ",
"                                                  ",
"                                                  ",
"                                                  ",
"                                                  ",
"                                                  ",
"                               ...                ",
"                               ...                ",
"                              ......              ",
"                              ...+...             ",
"                              ...+...             ",
"                            ...+++++...           ",
"                           ...+++++++.....        ",
"                           ...+++++++.....        ",
"                         ...+++.....+++...        ",
"                         ...+++.....+++...        ",
"                       ....+++... .......         ",
"                       ....+++....  ...           ",
"                       ....+++....  ...           ",
"                      ...++++++.....              ",
"                    ...++++...+++...              ",
"                    ...++++...+++...              ",
"              ........+++.........                ",
"           .........@@+....   ....                ",
"           .........@@+....   ....                ",
"         ...##+++++++++....                       ",
"         ...##+++++++++....                       ",
"         ..@++++....+++....                       ",
"        ...+++........+....                       ",
"        ...+++........+....                       ",
"        ...+....    ..+++..                       ",
"        ...+....    ..+++..                       ",
"        ...+....    ..+++..                       ",
"        ...+....   ...+++..                       ",
"        ...+++........+....                       ",
"        ...+++........+....                       ",
"         ...+++++++++++....                       ",
"           ...++++++.....                         ",
"           ...++++++.....                         ",
"            ...........                           ",
"            ...........                           ",
"                ...                               ",
"                                                  ",
"                                                  ",
"                                                  ",
"                                                  ",
"                                                  ",
"                                                  ",
"                                                  ",
"                                                  "};
