/* XPM */
static char * exit_xpm[] = {
"50 50 2 1",
" 	c #4C69C0",
".	c #002AFF",
"                                                  ",
"                                                  ",
"                                                  ",
"                                                  ",
"                                                  ",
"                                                  ",
"                                                  ",
"             ........................             ",
"             ........................             ",
"             ........................             ",
"             ........................             ",
"             ......                               ",
"             ......                               ",
"             ......                               ",
"             ......                               ",
"             ......                               ",
"             ......                               ",
"             ......                               ",
"             ......                               ",
"             ......                               ",
"             ......                               ",
"             ........................             ",
"             ........................             ",
"             ........................             ",
"             ........................             ",
"             ......                               ",
"             ......                               ",
"             ......                               ",
"             ......                               ",
"             ......                               ",
"             ......                               ",
"             ......                               ",
"             ......                               ",
"             ......                               ",
"             ......                               ",
"             ......                               ",
"             ......                               ",
"             ......                               ",
"             ......                               ",
"             .........................            ",
"             .........................            ",
"             .........................            ",
"             .........................            ",
"                                                  ",
"                                                  ",
"                                                  ",
"                                                  ",
"                                                  ",
"                                                  ",
"                                                  "};
