/* XPM */
static char * exit_xpm[] = {
"50 50 12 1",
" 	c #443F50",
".	c #000000",
"+	c #CFAD31",
"@	c #643709",
"#	c #4E2703",
"$	c #3A1D02",
"%	c #A08927",
"&	c #141105",
"*	c #8C7722",
"=	c #0D0B03",
"-	c #512C07",
";	c #251403",
"                                                  ",
"                                                  ",
"                                                  ",
"                                                  ",
"                                                  ",
"                                                  ",
"                                                  ",
"                                                  ",
"                                                  ",
"                                                  ",
"                                                  ",
"                                                  ",
"                                                  ",
"                                                  ",
"                                                  ",
"                                                  ",
"     ........................................     ",
"   ............................................   ",
"   ............................................   ",
"   ...+++..@@@@@@@@@@@@@@@@@@@@@@@@@@@@..+++...   ",
"   ...+++..@@@@@@@@@@@@@@@@@@@@@@@@@@@@..+++...   ",
"   ...+++..@@@@@@@@@@@@@@@@@@@@@@@@@@@@..+++...   ",
"   ...+++..@@@@@@@@@@@@@@@@@@@@@@@@@@@@..+++...   ",
"   ...+++..@@@@@@@@@@@@@@@@@@@@@@@@@@@@..+++...   ",
"   ...+++..@@@@@@@@@@@@@@@@@@@@@@@@@@@@..+++...   ",
"   ...+++..@@@@@@@@@@@@@@@@@@@@@@@@@@@@..+++...   ",
"   ...+++..@@@@@@@@@@@@@@@@@@@@@@@@@@@@..+++...   ",
"   ...+++..@###########....$###########..+++...   ",
"   ...+++..@@@@@@@@@..........@@@@@@@@@..+++...   ",
"   ...+++..@@@@@@@@@..........@@@@@@@@@..+++...   ",
"   ...+++.............%&&&&%.............+++...   ",
"   ...+++++++++++...%%&....&%%...+++++++++++...   ",
"   ...+++++++++++...%%&....&%%...+++++++++++...   ",
"   ...+++++++++++..*%%=.....%%%..+++++++++++...   ",
"   ............................................   ",
"   ............................................   ",
"   ...+++++++++++..%%%%....%%%%..+++++++++++...   ",
"   ...+++++++++++...%%%....%%%...+++++++++++...   ",
"   ...+++++++++++...%%%....%%%...+++++++++++...   ",
"   ...+++.............%&&&&%.............+++...   ",
"   ...+++.............%&&&&%.............+++...   ",
"   ...+++..@@@@@@@@-..........;@@@@@@@@..+++...   ",
"   ...+++..@@@@@@@@@@@......@@@@@@@@@@@..+++...   ",
"   ...+++..@@@@@@@@@@@......@@@@@@@@@@@..+++...   ",
"   ...+++..@@@@@@@@@@@@@@@@@@@@@@@@@@@@..+++...   ",
"   ...+++..@###########################..+++...   ",
"   ...+++..@###########################..+++...   ",
"   ............................................   ",
"     ........................................     ",
"     ........................................     "};
