/* XPM */
static char * player_xpm[] = {
"50 50 12 1",
" 	c #443F50",
".	c #1A0521",
"+	c #3678F2",
"@	c #4701A8",
"#	c #E5928B",
"$	c #F8ECF7",
"%	c #005739",
"&	c #FFC8A8",
"*	c #E9F236",
"=	c #BA7E0E",
"-	c #820036",
";	c #BF0E30",
"                   .........                      ",
"                   .........                      ",
"                   .........                      ",
"            .......++++++@@@......                ",
"            .......++++++@@@......                ",
"            .......++++++@@@......                ",
"         ...@@@@@@@++++++++++++@@@...             ",
"         ...@@@@@@@++++++++++++@@@...             ",
"         ...@@@@@@@++++++++++++@@@...             ",
"            ....++++++++++++@@@+++@@@....         ",
"            ....++++++++++++@@@+++@@@....         ",
"            ....++++++++++++@@@+++@@@....         ",
"         ...@@@@+++@@@+++@@@@@@@@@+++....         ",
"         ...@@@@+++@@@+++@@@@@@@@@+++....         ",
"         ...@@@@+++@@@+++@@@@@@@@@+++....         ",
"         ...@@@@+++@@@+++@@@@@@@@@+++....         ",
"         ...++++......###.........+++@@@@...      ",
"         ...++++......###.........+++@@@@...      ",
"         ...++++......###.........+++@@@@...      ",
"         ...++++$$$%%%###&&&%%%$$$+++@@@@...      ",
"         ...++++$$$%%%###&&&%%%$$$+++@@@@...      ",
"         ...++++$$$%%%###&&&%%%$$$+++@@@@...      ",
"      ...***@@@@...###&&&&&&###...@@@****...      ",
"      ...***@@@@...###&&&&&&###...@@@****...      ",
"      ...***@@@@...###&&&&&&###...@@@****...      ",
"      ...===****@@@............@@@***====...      ",
"      ...===****@@@............@@@***====...      ",
"      ...===****@@@............@@@***====...      ",
"      ......=======***======***======.......      ",
"      ......=======***======***======.......      ",
"      ......=======***======***======.......      ",
"      ...---.......;;;@@@+++---......####...      ",
"      ...---.......;;;@@@+++---......####...      ",
"      ...---.......;;;@@@+++---......####...      ",
"      ...;;;&&&&...---@@@@@@---...#######...      ",
"      ...;;;&&&&...---@@@@@@---...#######...      ",
"      ...;;;&&&&...---@@@@@@---...#######...      ",
"      ...&&&####...===***...===.............      ",
"      ...&&&####...===***...===.............      ",
"      ...&&&####...===***...===.............      ",
"      ...&&&####...===***...===.............      ",
"      .............@@@+++...@@@...-------...      ",
"      .............@@@+++...@@@...-------...      ",
"      .............@@@+++...@@@...-------...      ",
"      ...---;;;;...@@@@@@......;;;-------...      ",
"      ...---;;;;...@@@@@@......;;;-------...      ",
"      ...---;;;;...@@@@@@......;;;-------...      ",
"         ................................         ",
"         ................................         ",
"         ................................         "};
