/* XPM */
static char * player_xpm[] = {
"50 50 2 1",
" 	c #4F575F",
".	c #17CA17",
"                                                  ",
"                                                  ",
"                                                  ",
"                                                  ",
"                                                  ",
"                                                  ",
"                                                  ",
"                                                  ",
"                                                  ",
"                                                  ",
"                     ........                     ",
"                  ..............                  ",
"                 ................                 ",
"               ....................               ",
"              ......................              ",
"             ........................             ",
"             ........................             ",
"            ..........................            ",
"           ............................           ",
"           ............................           ",
"           ............................           ",
"          ..............................          ",
"          ..............................          ",
"          ..............................          ",
"          ..............................          ",
"          ..............................          ",
"          ..............................          ",
"          ..............................          ",
"          ..............................          ",
"           ............................           ",
"           ............................           ",
"           ............................           ",
"            ..........................            ",
"             ........................             ",
"             ........................             ",
"              ......................              ",
"               ....................               ",
"                 ................                 ",
"                  ..............                  ",
"                     ........                     ",
"                                                  ",
"                                                  ",
"                                                  ",
"                                                  ",
"                                                  ",
"                                                  ",
"                                                  ",
"                                                  ",
"                                                  ",
"                                                  "};
