/* XPM */
static char * wall_xpm[] = {
"50 50 2 1",
" 	c #C234D9",
".	c #4F575F",
"                                                  ",
"                                                  ",
"                                                  ",
"                                                  ",
"                                                  ",
"            ..........................            ",
"          ..............................          ",
"        ..................................        ",
"       ....................................       ",
"       ....................................       ",
"      ......................................      ",
"      ......................................      ",
"     ........................................     ",
"     ........................................     ",
"     ........................................     ",
"     ........................................     ",
"     ........................................     ",
"     ........................................     ",
"     ........................................     ",
"     ........................................     ",
"     ........................................     ",
"     ........................................     ",
"     ........................................     ",
"     ........................................     ",
"     ........................................     ",
"     ........................................     ",
"     ........................................     ",
"     ........................................     ",
"     ........................................     ",
"     ........................................     ",
"     ........................................     ",
"     ........................................     ",
"     ........................................     ",
"     ........................................     ",
"     ........................................     ",
"     ........................................     ",
"     ........................................     ",
"     ........................................     ",
"      ......................................      ",
"      ......................................      ",
"       ....................................       ",
"       ....................................       ",
"        ..................................        ",
"          ..............................          ",
"            ..........................            ",
"                                                  ",
"                                                  ",
"                                                  ",
"                                                  ",
"                                                  "};
