/* XPM */
static char * wall_xpm[] = {
"50 50 5 1",
" 	c None",
".	c #3978A8",
"+	c #394778",
"@	c #302C2E",
"#	c #39314B",
"............    .....................    .........",
"............    .....................    .........",
"............    .....................    .........",
"...+++++++++@@@@+++++++++++++++++++++@@@@++++++...",
"...+++++++++@@@@+++++++++++++++++++++@@@@++++++...",
"...+++++++++@@@@+++++++++++++++++++++@@@@++++++...",
"...+++++++++@@@@+++++++++++++++++++++@@@@++++++...",
"...+++++++++@@@@+++++++++++++++++++++@@@@++++++...",
"...+++++++++@@@@+++++++++++++++++++++@@@@++++++...",
"   @@@@@@@@@@@@@@@@@@@@@@@@@@@@@@@@@@@@@@++++++...",
"   @@@@@@@@@@@@@@@@@@@@@@@@@@@@@@@@@@@@@@++++++...",
"   @@@@@@@@@@@@@@@@@@@@@@@@@@@@@@@@@@@@@@++++++...",
"...++++++@@@#############@@@#########@@@@@@@@@@   ",
"...++++++@@@#############@@@#########@@@@@@@@@@   ",
"...++++++@@@#############@@@#########@@@@@@@@@@   ",
"...++++++@@@#############@@@#########@@@@@@@@@@   ",
"...++++++@@@#############@@@#########@@@@++++++...",
"...++++++@@@#############@@@#########@@@@++++++...",
"...++++++@@@#############@@@#########@@@@++++++...",
"...++++++@@@#############@@@#########@@@@++++++...",
"...++++++@@@#############@@@#########@@@@++++++...",
"...++++++@@@#############@@@#########@@@@++++++...",
"...++++++@@@@@@@@@@@@@@@@@@@#########@@@@++++++...",
"...++++++@@@@@@@@@@@@@@@@@@@#########@@@@++++++...",
"...++++++@@@@@@@@@@@@@@@@@@@#########@@@@++++++...",
"...++++++@@@##########@@@@@@@@@@@@@@@@@@@++++++...",
"...++++++@@@##########@@@@@@@@@@@@@@@@@@@++++++...",
"...++++++@@@##########@@@@@@@@@@@@@@@@@@@++++++...",
"...++++++@@@##########@@@############@@@@++++++...",
"...++++++@@@##########@@@############@@@@++++++...",
"...++++++@@@##########@@@############@@@@++++++...",
"...++++++@@@##########@@@############@@@@++++++...",
"...++++++@@@##########@@@############@@@@++++++...",
"...++++++@@@##########@@@############@@@@++++++...",
"   @@@@@@@@@##########@@@############@@@@++++++...",
"   @@@@@@@@@##########@@@############@@@@++++++...",
"   @@@@@@@@@##########@@@############@@@@++++++...",
"...++++++@@@@@@@@@@@@@@@@@@@@@@@@@@@@@@@@@@@@@@   ",
"...++++++@@@@@@@@@@@@@@@@@@@@@@@@@@@@@@@@@@@@@@   ",
"...++++++@@@@@@@@@@@@@@@@@@@@@@@@@@@@@@@@@@@@@@   ",
"...++++++@@@@@@@@@@@@@@@@@@@@@@@@@@@@@@@@@@@@@@   ",
"...++++++@@@++++++++++++++++++++++@@@++++++++++...",
"...++++++@@@++++++++++++++++++++++@@@++++++++++...",
"...++++++@@@++++++++++++++++++++++@@@++++++++++...",
"...++++++@@@++++++++++++++++++++++@@@++++++++++...",
"...++++++@@@++++++++++++++++++++++@@@++++++++++...",
"...++++++@@@++++++++++++++++++++++@@@++++++++++...",
".........   ......................   .............",
".........   ......................   .............",
".........   ......................   ............."};
